<svg xmlns="http://www.w3.org/2000/svg" viewBox="0 0 151.43 201.59">
  <defs>
    <style>
      .cls-1 {
        fill: #a31738;
      }
    </style>
  </defs>
  <title>Ресурс 1</title>
  <g id="Слой_2" data-name="Слой 2">
    <g id="Слой_1-2" data-name="Слой 1">
      <g>
        <g>
          <path class="cls-1" d="M97.91,71.27c-2.07-.13-4.15-.19-6.22-.44H91.6c.18.92.34,1.86.49,2.81h.1A17.7,17.7,0,0,1,101.68,76c.6.32,1.18.66,1.76,1-.25-1.5-.54-3-.89-4.41A25.92,25.92,0,0,1,99.28,72,3.46,3.46,0,0,1,97.91,71.27Z"/>
          <path class="cls-1" d="M88,114.36a35.88,35.88,0,0,1,7.47,3.57,35.83,35.83,0,0,0,4.51-7.67c-3.12-1.14-6.07-2.71-9.12-4.17A56.31,56.31,0,0,1,88,114.36Z"/>
          <path class="cls-1" d="M84,120.71c-4,4.14-9.63,6.22-17.09,6.22q-15.39,0-20.79-11.76T40.68,87.63q0-17.55,5.28-28.81T66.88,47.57q15.65,0,20.92,11.25a45,45,0,0,1,2,5,35.21,35.21,0,0,1,9.94.26A34.31,34.31,0,0,0,88,49.66q-8.38-5.91-21.11-5.91T45.77,49.66A34.53,34.53,0,0,0,33.43,65.5a59.41,59.41,0,0,0-3.94,22.13,56.91,56.91,0,0,0,4.07,22.19A33.53,33.53,0,0,0,46,125.15q8.32,5.59,20.92,5.6t20.92-5.6c.88-.59,1.71-1.22,2.51-1.88A28.25,28.25,0,0,0,84,120.71Z"/>
          <path class="cls-1" d="M93.08,87.63a80.42,80.42,0,0,1-.75,11.21l.34.14c3.16,1.41,6.3,3.41,9.64,4.6a61.78,61.78,0,0,0,2-16c0-.69,0-1.37,0-2-3.79-1.75-7.16-4.61-11.38-4.7Q93.08,84.14,93.08,87.63Z"/>
          <path class="cls-1" d="M67.2,133.16h3.44a22.11,22.11,0,0,0,6.8,15A21.29,21.29,0,0,0,92.77,154q8.78,0,13.54-5.28a18.19,18.19,0,0,0,4.77-12.65,14.21,14.21,0,0,0-3.56-9.92q-3.55-3.94-11.19-7.25l-7.63-3.31q-10.19-4.45-15.39-9.79T68.09,91.57q0-10.93,7.32-15.83t18-4.9a25.12,25.12,0,0,1,12.72,2.8,8.9,8.9,0,0,0,2.8.89,1.71,1.71,0,0,0,1.65-1,9.17,9.17,0,0,0,.77-2.67h3L115.66,93h-3.43a22,22,0,0,0-5.6-13q-4.83-5.27-13.73-5.28-7,0-11.07,3.63T77.76,89.92q0,6.1,2.93,9.66T91,106.2l7.37,3.18A108.27,108.27,0,0,1,110,115.29a24.15,24.15,0,0,1,7.63,7.44,21,21,0,0,1,3.12,11.83q0,11.58-8,17.43T93,157.84a37,37,0,0,1-7.82-.7,59.82,59.82,0,0,1-6.68-2,10.53,10.53,0,0,0-3.69-1q-2.42,0-2.67,3.69H68.73Z"/>
        </g>
        <g>
          <path class="cls-1" d="M75.68.34c.21,0,.13-.28.16-.34C75.49.08,75.69.42,75.68.34Z"/>
          <path class="cls-1" d="M72.3,1.14l0-.13c-.16.11-.32.21-.48.33C72,1.26,72.16,1.21,72.3,1.14Z"/>
          <path class="cls-1" d="M69.15,1.43c.35.48,1.13-.2,1.71-.07l.1.11L71.18,1A7.54,7.54,0,0,1,69.15,1.43Z"/>
          <path class="cls-1" d="M67.31.54c.13.18-.34.23.4,0l-.07,0Z"/>
          <path class="cls-1" d="M67.64.5c.33-.07-.25-.13,0,0Z"/>
          <path class="cls-1" d="M66.11.87l.41-.25c-.11-.1-.51-.06-.38-.17C65.7.62,65.82.72,66.11.87Z"/>
          <path class="cls-1" d="M65.76,1.32,66,1.2S65.86,1.15,65.76,1.32Z"/>
          <path class="cls-1" d="M66.42,1,66,1.2c.08.07.11.24.21-.09C66.17,1.26,66.24,1.1,66.42,1Z"/>
          <path class="cls-1" d="M66.71,1c.26.07.59.09.18.34C67.71,1.12,67.54.78,66.71,1Z"/>
          <path class="cls-1" d="M69.05,2l.34.11.26-.2C69.52,2,69,1.82,69.05,2Z"/>
          <path class="cls-1" d="M63.32,1.13c0,.11.21.25.27.38l.29-.2C63.7,1.28,63.38,1.28,63.32,1.13Z"/>
          <path class="cls-1" d="M63.59,1.51l-.44.3C63.58,1.73,63.64,1.62,63.59,1.51Z"/>
          <polygon class="cls-1" points="65.78 1.89 66.5 1.37 65.63 1.92 65.78 1.89"/>
          <polygon class="cls-1" points="61.47 1.55 61.69 1.24 61.29 1.73 61.47 1.55"/>
          <path class="cls-1" d="M60.27,1.9c.14-.27-.37-.26-.2-.45a2.09,2.09,0,0,0-.75.63A1.24,1.24,0,0,1,60.27,1.9Z"/>
          <path class="cls-1" d="M59,2.43a3.84,3.84,0,0,0,.35-.35A1.29,1.29,0,0,0,59,2.43Z"/>
          <path class="cls-1" d="M62.33,2a.58.58,0,0,0-.45-.22l.26.26Z"/>
          <path class="cls-1" d="M62.15,2h0l-.41.08Z"/>
          <path class="cls-1" d="M62.37,1.94h0S62.36,2,62.37,1.94Z"/>
          <path class="cls-1" d="M64.47,1.83c-.25.22-.79.55-.18.67C64.45,2.25,64.1,2.17,64.47,1.83Z"/>
          <path class="cls-1" d="M62.69,2.26l.52,0c0-.08-.14-.17,0-.29Z"/>
          <polygon class="cls-1" points="62.47 2.42 62.7 2.26 62.5 2.28 62.47 2.42"/>
          <path class="cls-1" d="M59.9,2.45a1.63,1.63,0,0,1-.67.38,4.26,4.26,0,0,0,.89-.18C60.13,2.55,60.21,2.34,59.9,2.45Z"/>
          <path class="cls-1" d="M61,2.24l0,0S61,2.29,61,2.24Z"/>
          <polygon class="cls-1" points="56.62 3.64 56.68 3.68 56.67 3.63 56.62 3.64"/>
          <path class="cls-1" d="M60.18,2.69a.53.53,0,0,0,.44-.24,3.72,3.72,0,0,1-.5.2C60.11,2.7,60.12,2.73,60.18,2.69Z"/>
          <path class="cls-1" d="M58.27,2.8a3,3,0,0,0,.43,0C58.56,2.78,58.29,2.71,58.27,2.8Z"/>
          <path class="cls-1" d="M60.86,2.2l0,0C60.8,2.13,60.81,2.16,60.86,2.2Z"/>
          <path class="cls-1" d="M60.86,2.2a1.41,1.41,0,0,0-.24.25A1.48,1.48,0,0,0,61,2.27.31.31,0,0,1,60.86,2.2Z"/>
          <path class="cls-1" d="M56.52,5.8c-.06-.28.39-.74,1-.61.39-.34-.21-1.16-.8-1.51,0,.13.07.24-.35.58.21.07,1.18,0,.85.34-.57.37-.54.1-.9.07.38.24-.62.79-.3,1.23l.48-.38C56.5,5.59,56.35,5.79,56.52,5.8Z"/>
          <path class="cls-1" d="M57.62,3.41l.2-.09A2.09,2.09,0,0,1,57,3.16c-.29.24-.32.37-.32.47.34-.11.68-.19,1-.28Z"/>
          <path class="cls-1" d="M58.72,3c-.06.35-.5.63-.11.86.58-.2.33-.38.65-.62-.93.37.22-.25-.52-.2a2.75,2.75,0,0,1,.49-.24,3.15,3.15,0,0,1-.53,0l0,0h0c.05,0,.07,0,0,0l0,0a.25.25,0,0,1,0,.12c-.29,0-.07-.06,0-.12V2.86h0l-.9.46A4,4,0,0,0,58.72,3Z"/>
          <path class="cls-1" d="M63.92,3.28a.07.07,0,0,1,0-.06C63.82,3.27,63.81,3.3,63.92,3.28Z"/>
          <path class="cls-1" d="M63.49,3.19c.06-.06.09-.2.32-.22s0,.15.07.25c.11-.12.43-.34,0-.38l-.06.05c-.41,0-1-.27-.94-.33A2.14,2.14,0,0,0,63.49,3.19Z"/>
          <path class="cls-1" d="M61.11,3.13a7.6,7.6,0,0,0-.76.37l.48.13-.07-.15C61.23,3.43,61.08,3.27,61.11,3.13Z"/>
          <polygon class="cls-1" points="56.48 3.53 56.48 3.18 56.18 3.79 56.48 3.53"/>
          <polygon class="cls-1" points="55.48 3.95 55.42 3.67 55.21 3.94 55.48 3.95"/>
          <path class="cls-1" d="M15.83,46.89l0,.25A1.49,1.49,0,0,0,15.83,46.89Z"/>
          <path class="cls-1" d="M16.62,45.39l-.1-.1C16.55,45.4,16.58,45.45,16.62,45.39Z"/>
          <path class="cls-1" d="M33,17.91c-.44,0-1,0-.76.22l.29.15A.93.93,0,0,1,33,17.91Z"/>
          <path class="cls-1" d="M22.53,32.57l.14,0-.11-.36Z"/>
          <path class="cls-1" d="M23.45,33.52l-.43.26A2,2,0,0,0,23.45,33.52Z"/>
          <path class="cls-1" d="M12.36,55.5l.2.38C12.71,55.48,12.49,55.59,12.36,55.5Z"/>
          <path class="cls-1" d="M45.48,8.8a2.38,2.38,0,0,0-.75.23C45.14,9,45.53,9.07,45.48,8.8Z"/>
          <path class="cls-1" d="M13.15,44.79c0,.15,0,.24.08.27C13.24,44.89,13.23,44.79,13.15,44.79Z"/>
          <path class="cls-1" d="M44,9.49l.17,0A2.52,2.52,0,0,1,44.73,9,.81.81,0,0,0,44,9.49Z"/>
          <path class="cls-1" d="M4.34,88.12l0,.07S4.34,88.17,4.34,88.12Z"/>
          <path class="cls-1" d="M.59,97.86a2.49,2.49,0,0,1,0-.41A1,1,0,0,0,.59,97.86Z"/>
          <path class="cls-1" d="M51.37,5.49c.21-.12,0,0,0,0Z"/>
          <path class="cls-1" d="M52.89,6.17a.19.19,0,0,0,0,.18A.21.21,0,0,1,52.89,6.17Z"/>
          <path class="cls-1" d="M43.11,12.35h0C43.18,12.37,43.16,12.37,43.11,12.35Z"/>
          <path class="cls-1" d="M51.75,5.48l-.31,0A1,1,0,0,0,51.75,5.48Z"/>
          <path class="cls-1" d="M51.65,5.36l.19-.06C51.85,5.24,51.81,5.23,51.65,5.36Z"/>
          <path class="cls-1" d="M51.09,5.64a1.66,1.66,0,0,1,.35-.13s-.07,0-.07,0Z"/>
          <path class="cls-1" d="M6.56,70.1l0,0C6.59,70.39,6.59,70.29,6.56,70.1Z"/>
          <path class="cls-1" d="M31.11,24.33a0,0,0,0,0,0,0l0,0Z"/>
          <path class="cls-1" d="M30.74,25.06c0-.51.11-.61.35-.74l-.84-.43Z"/>
          <path class="cls-1" d="M14.16,50.61l.48-.39c.14.8-.18,1.18.38.86-.89-.48.83-2,0-2.46l.35-.24c-.06.09,0,.13-.07.21.73-.43-.41-.78.12-1.55.2-.26.43-.39.44-.15,0-.24.05-.5.09-.75s.25,0,.13.13l.45-1,0,0a4.06,4.06,0,0,1-.12-.83c.25-.18,0,.17.17.17l.07-.65c.34-.1.33.46.1.81,1.13,0,0-.56,1.09-1.35l-.16.56c.66-.06.69-.55,1.3-.94-.23,0-1.37.71-1.28,0a.88.88,0,0,0,.3-.73c.3.17.4-.16.6-.55l.39.26c.12-.47-.1-.55-.15-.89a.85.85,0,0,1,1-.29c.48-.67-.78.2-.36-.69a3.5,3.5,0,0,0,.79-1.87c.4-.32.19.23.4.15l-.08-.56c.07-.08.14,0,.18.06.08-.38-.37-.28-.17-.82-.34-.41,1.26-.58,1.16-1.49.21-.07.19.23.37.29a7.08,7.08,0,0,0,.27-1.79l.64-.37c-.57.2-.54-.55-.49-1.21-.24,0-.44.09-.56.13l.32-.88c.13-.05.2.12.27.36a1.56,1.56,0,0,0,0-.2c.33-.17.44.13.52.47l-.42.09c.1.35.23.7.48.82a.65.65,0,0,1,.07-.31c0,.09.06.16.11.16s0-.13,0-.32l.54.14-.14-.16.93-.75a6.8,6.8,0,0,1,.59-3.19c.09.5.44.44.78.73-.59,0-.47.93-1,1.41.26-.25.38-.06.39.06l.41-1.22c.27.24.37,0,.69-.19-.72-.26.18-1,.32-1.55.21.13.32.38-.1.82.83-.18-.11-1.21.68-1.41-.09.11-.17.15-.12.27.06-.4.75-.93.78-.64l-.09.12c.7-.69,1.94-2.26,1.62-2.77a5.76,5.76,0,0,1,.51.73q-.17-1.34-.3-2.7c.28.48,1.59.92,1.25,1.71a1.28,1.28,0,0,0,.68-.74c-.16.06-.82-.25-.71-.44a4.31,4.31,0,0,0,1.38-.26c-.24.09-.65-.69-.36-.94,0,.13.6.56.56.72l.11-1.23c-.07.27.45.52.77.55-.18-.05.59-.55.72-.78l-.42.14c.85-.64,0-1.56.78-2.26,0,.21.46,1,.93.7-.1-.47-.5-2.21,0-3.08l.3.06.38-.68A18.21,18.21,0,0,1,36,19.49c.43-.12.27.14.71-.26.3,0,0,.46-.15.58L37.72,19c-.36-.34.48-1.06.19-1.34l-.81,1.36c-.37-.33-.24-1.62.57-2.2.31,0,.4.8.52.91,0-.22.52-.83.67-.79l-.16.45c.54-.18.3-1,1.1-1.07.2-.12.91.09.77-.16a4.15,4.15,0,0,1-1.78-2,7.11,7.11,0,0,1,1.66-.25c.55.12.16,1.18.63,1.28a.72.72,0,0,1,0-.46c.26-.05.16.38.55,0-.22-.45.89-.56,0-.48.34-.4.5-.22,1-.57-.34-.16-.17-1.2.18-1.61,0,.12.23.19.32.22.88-.57,1.5-.64,2.33-1.15.14.06.62-.06.55.23a1,1,0,0,1,.35-.53c.71.07-.53.41.1.62-.11-.27.46-.74.74-1.12-.33-.31-.89.44-1.16.81-.32-.51,0-1.46.76-2.23.65-.52.5.18.59,0,1.41-.63.67-1.56,2-1.77.63.11.37.68.59.88-.52.44-1,.25-1.4.48l.57-.1A1.13,1.13,0,0,1,48.4,9c.54.12,2.31-1.16,3.54-1.31.13-.21.41-.48.19-.55l-.32.2c-.45-.14.46-.69,0-.62a2.66,2.66,0,0,1,1.48-1.1l.29.36c-.06-.12-.53-.06-.66.15.19-.31,1.23.11,1.32-.53l-.59-.1c.39-.39.82-1.06,1.47-1.15-.43-.31-.12.1-.73-.22.6.45-1.55.56-.71,1-.66-.4-.83.08-1.6-.14.08.13.31.17-.21.32a.48.48,0,0,1-.05.17h0s0,0,0,0a.65.65,0,0,1,.34.09c-.11.42-.89.76-1.08,1-.32.06,0-.21-.17-.28l-.28.41c-.18-.28-1-.14-.41-.62l-.62.27a1.8,1.8,0,0,0-1.19.49c-.32.09-.55.7-.43.34l-.84.68,0-.07c-1,.43-1.59,1.53-2.93,1.64a2.88,2.88,0,0,1-1.07.75l-.25-.17c-.33.32-1.28.53-1.28.88-.83-.34-1.94,1.09-2.64,1.47l.19.31A7.37,7.37,0,0,0,37.84,14l.23.24c-.29.57-1.35.7-2,1.34,0-.13.17-.26.34-.31-1.31.15-1.42,1.92-2.53,2.16a.65.65,0,0,1-.46.39.05.05,0,0,0,0-.05l-.07.06c-.12,0-.25.07-.37.12a1.33,1.33,0,0,0,.33-.08,3.21,3.21,0,0,0-.47.63l-.33-.18,0,.06c-.29.1,0,.27.24.36a1.13,1.13,0,0,0-.13.42c-.55-.26-.41.65-1.05.43.06.34-.89,1.14-.56,1.68-.06-.05-.15,0,0-.13a1.18,1.18,0,0,0-.61.69l-.41-.22-.05.92c-.48.11-.72.13-.67-.41-.32,1.1-.43.73-.63,1.71l-.19-.23c-.2.23-.24.85-.54.83s-1,.7-1.64,1.44c-.33.36-.67.75-1,1.12a6.55,6.55,0,0,1-1.07,1c.87.26-.8.41-.33.87-.22,0-.46.08-.42-.25-.4.83-1.09.87-1,1.7-.22,0-.12-.33-.27-.33,0,.09,0,.34-.17.34s-.06-.2-.05-.37c-.51.77-.07,1.21.36,1.6-.49.22-.59.43-.48.92-.24,0-.56.13-.29-.38-.2.25-1.36,1.44-1,1.72-.15,0-.27.35-.27.45a10.62,10.62,0,0,0-.83,1.23l.17-.12c.32.54-.21.56-.47,1.07l0,0c-1.05.88-.16.57-1.22,1.41l.33.12c.58.49-.95.75-1.08,1.54l.3-.13c0,.47-1.45.46-1.74.77-.1.05,0-.17,0-.3-.93.71.32.34,0,1.08-.29,0-.45-.47-.76,0-.3.14,0,1.76-.8,2.18.25-.05.49-.1.44.29-.21.53-1.36,1-1.07,1.75-.08,0-.13,0-.17,0-.06.46-.39,1.38-.21,1.76-1.25-.16-.63,2.67-1.63,2.19l-.48,1.25-.09-.08a1.62,1.62,0,0,0-.15,1.52c-.15.15-.19,0-.23-.06A2.52,2.52,0,0,0,9.85,54l-.37,0c.09.34-1.17,1.48-1.22,2.77a.23.23,0,0,1-.1-.18c-.12,1.41-2,2.79-1,3.68l0,1c.47-1.07.48.34.84-.05-.07.46-.75,1-.64.45l.09-.06c-.59-.41-.68,1.3-1.1,1.14-.63,2.21-1.63,4.26-2.16,6.37l.57-.11-.21.72c-.17.16-.47.16-.31-.36-.37.2,0,.93.13,1-.47,1-.5-.54-.59-.23l-.07.44.08-.08c.13.39.33.47.17,1.1-.19.37-.36.13-.42.28,0,0-.06,0-.06.24l-.25.92.49-.28c.11.45-.21.87.35.54-.85.47-1,3.4-1.26,3.75a3.47,3.47,0,0,1-.06,1.91c.12-.17.6-.19.43.41-.91-.38-.61,1-1.38,1.43.52-.37-.12,1.77.62,1.17-.14.5-.36,0-.64.34.23,1.27-.63,2.66-.65,4.2.13,0,.35-.2.5.15L1,87.29c0,.31.71.35.22.86.11-.07.28-.17.3,0a11.37,11.37,0,0,0-.41,2.23c-.06.76,0,1.53-.06,2.29A13.13,13.13,0,0,1,.3,97.27c.25-.41.27-.13.27.18.07-.2.32,0,.49,0l-.5,1.26c.47.23,0,1.36.46,1.49L1,99.78c.53.54,1.21-.73,1.9-.64-.6-.61.94-1.54.08-2.52.15-.21.22.19.38.08-.29-.26-.35-.55-.2-1.1l.07.07a21.56,21.56,0,0,1,.64-3.89l-.35.1a1.34,1.34,0,0,1,.28-.6c-.5-.46-.09,1-.64.61.7-.44.21-2.61,1-2.87,0-.57-.42.13-.36-.44L4,88.45l-.26-.17a.6.6,0,0,1,.55-.52,1.14,1.14,0,0,0,0,.36c.3-.46,0-1.37.14-1.53l-.18.53c-.09-1.57.51-3.4.26-5l-.18.09c-.14-1.19.28-.89.37-2.15l0,0a1.55,1.55,0,0,1-.06-1c.13.34.46-.53.6-.08-.11-1.28-.15-.65-.6-1.57l.3-.14a1.2,1.2,0,0,1-.28-1c.14.55.47-.32.67.3.83-1.18-.18-2,.79-2.45-.61-.75-.65,1-.73.67-.3.23-.44-.61-.28-1s1.08-.51,1.28-1.55c0,.11,0,.13,0,.23.27-.35-.1-.82.33-1.22-.37-.37.18-.61-.36-.82l-.11,1c0-.57-.54-1.23,0-2a1.4,1.4,0,0,1,.22.59c.23-.21,0-.52.25-.75.54.22-.17,1.18.11,1.86.3-.22-.13-1.18.4-.75-.66-.6.35-1-.05-1.83l.32.14a1.26,1.26,0,0,1-.07-.6l.34.48c-.22-.66.58-1,.54-1.58-.3,1.12-.47.14-.83.55-.07-1.51,1.09-.56,1.37-2.14,0,.22-.42.73-.48.36a2.07,2.07,0,0,1,.62-.76c.23-1-.38.06-.46-.43.5-.23,0-.55,0-1l.34.1c.56-1.1-.63-.54,0-1.5l.31.59.07-.58.34.23A1.74,1.74,0,0,1,10,61.08c-.28.05-.57-.28-.41-.79.31-.29.25.3.44-.44.16.23.35.5-.06.71.1.07.16.23.25.3.35-.3.37-.92.46-1.18a.62.62,0,0,1-.18.25l-.1-1.2c.18-.12.24,0,.29.21,0-.23-.07-.43,0-.75.24.18.52.26.49.74,0-.36.05-.72.07-1.09.14,0,.51-.38.56-.22.37-.48,0-1.52.48-2.16a.47.47,0,0,1,0-.32c.31-.66.9-1.11.88-2l.66-.25c.16-.66-.85.35-.58-.75.16-.8.51-.1.75-.3-.07-.46-.3-1.32.4-1.8C14.36,50.24,14.21,50.38,14.16,50.61Zm3.52-7.53c0,.18,0,.57-.2.58C17.21,43.3,17.45,43.27,17.68,43.08ZM23.8,32c0,.16-.14.28-.36.38A.73.73,0,0,1,23.8,32ZM49.21,6.82v0C48.81,6.89,49,6.88,49.21,6.82ZM50,6.6c.05-.07,0-.11,0-.15s-.17.18-.35.25C49.67,6.76,49.79,6.77,50,6.6ZM3.71,71.89l.12-.12C3.86,72.12,3.79,72,3.71,71.89Z"/>
          <path class="cls-1" d="M23.35,33.41a.42.42,0,0,1-.2,0C23.16,33.44,23.22,33.48,23.35,33.41Z"/>
          <path class="cls-1" d="M12.32,55.43v0a.1.1,0,0,0,0,0Z"/>
          <path class="cls-1" d="M41.42,15.17a.6.6,0,0,1-.34,0C41.13,15.28,41.23,15.29,41.42,15.17Z"/>
          <path class="cls-1" d="M53.51,4.39l-.44.26a.84.84,0,0,1,.47-.06C53.5,4.52,53.36,4.45,53.51,4.39Z"/>
          <path class="cls-1" d="M58.28,5c0-.06.14,0,.19-.11l-.07-.15C58.12,4.79,58,5,58.28,5Z"/>
          <path class="cls-1" d="M54.37,5.3c.15.26.4.06.7-.12l-.06,0C55,4.79,54.66,5,54.37,5.3Z"/>
          <path class="cls-1" d="M55.14,5.15a1,1,0,0,1,.3-.12C55.42,4.86,55.3,5,55.14,5.15Z"/>
          <path class="cls-1" d="M50.78,6c.19,0-.06-.38.08-.31C50.87,5.29,50,6.57,50.78,6Z"/>
          <polygon class="cls-1" points="54.98 6.1 54.74 5.81 54.67 6.15 54.98 6.1"/>
          <path class="cls-1" d="M52.4,6.89l.54-.13s0-.11.08-.17C52.71,6.72,52.35,6.8,52.4,6.89Z"/>
          <path class="cls-1" d="M53,6.59a.86.86,0,0,0,.38-.24A1.68,1.68,0,0,0,53,6.59Z"/>
          <path class="cls-1" d="M54.33,6.47l-.18,0c-.12,0-.25.07-.36.12Z"/>
          <path class="cls-1" d="M47.12,9.44a5.71,5.71,0,0,0-.47.39c0,.14.19.12.35,0S47.26,9.5,47.12,9.44Z"/>
          <path class="cls-1" d="M49.17,9.48c-.17,0-.22-.06-.35-.12l.19.4Z"/>
          <path class="cls-1" d="M47.71,10.37c0,.13-.57.72.07.34C47.77,10.57,48.24,10.21,47.71,10.37Z"/>
          <polygon class="cls-1" points="39.98 14.73 40.09 14.63 39.63 14.05 39.98 14.73"/>
          <path class="cls-1" d="M35.14,21c.62-.34-.19-.44.41-.71,0-.24-.49.22-.47,0C34.9,20.75,34.67,20.82,35.14,21Z"/>
          <path class="cls-1" d="M35.08,20.32a2,2,0,0,0,.08-.23A.6.6,0,0,0,35.08,20.32Z"/>
          <polygon class="cls-1" points="0.16 99.53 0 99.99 0.25 99.69 0.16 99.53"/>
          <path class="cls-1" d="M.69,100.41l-.47.11.42.27C.62,100.69.59,100.49.69,100.41Z"/>
          <path class="cls-1" d="M19.1,42.47,19,42.39c-.14,0-.2.08-.32.25Z"/>
          <polygon class="cls-1" points="16 47.6 16.05 47.51 15.59 47.5 16 47.6"/>
          <path class="cls-1" d="M14.38,52.39c.1-.18.11-.44.2-.62C14.48,52.21,13.87,52.23,14.38,52.39Z"/>
        </g>
        <g>
          <path class="cls-1" d="M76,201.25c-.2,0-.13.28-.16.34C76.17,201.51,76,201.17,76,201.25Z"/>
          <path class="cls-1" d="M79.19,200.46l0,.12.46-.32Z"/>
          <path class="cls-1" d="M82.17,200.2c-.33-.49-1.06.19-1.61.05l-.1-.1-.21.43A7.12,7.12,0,0,1,82.17,200.2Z"/>
          <path class="cls-1" d="M83.91,201.12c-.12-.19.33-.23-.38,0l.07,0Z"/>
          <path class="cls-1" d="M83.6,201.15c-.31.07.23.14,0,0Z"/>
          <path class="cls-1" d="M85.05,200.8l-.39.25c.11.1.48.07.36.18C85.43,201.06,85.32,201,85.05,200.8Z"/>
          <path class="cls-1" d="M85.38,200.37l-.2.11S85.29,200.53,85.38,200.37Z"/>
          <path class="cls-1" d="M84.75,200.71l.43-.23c-.07-.08-.1-.24-.2.09C85,200.41,84.93,200.57,84.75,200.71Z"/>
          <path class="cls-1" d="M84.48,200.67c-.25-.07-.56-.09-.17-.34C83.53,200.53,83.69,200.87,84.48,200.67Z"/>
          <path class="cls-1" d="M82.27,199.65l-.33-.12-.24.2C81.82,199.63,82.3,199.81,82.27,199.65Z"/>
          <path class="cls-1" d="M87.69,200.6c0-.11-.19-.25-.25-.38l-.28.19C87.33,200.45,87.64,200.45,87.69,200.6Z"/>
          <path class="cls-1" d="M87.44,200.22l.41-.29C87.44,200,87.39,200.1,87.44,200.22Z"/>
          <polygon class="cls-1" points="85.36 199.79 84.68 200.3 85.5 199.76 85.36 199.79"/>
          <polygon class="cls-1" points="89.44 200.22 89.24 200.53 89.61 200.05 89.44 200.22"/>
          <path class="cls-1" d="M90.59,199.91c-.14.25.35.28.18.46a2.13,2.13,0,0,0,.72-.61A1.1,1.1,0,0,1,90.59,199.91Z"/>
          <path class="cls-1" d="M91.82,199.42a2.15,2.15,0,0,0-.33.34A1.19,1.19,0,0,0,91.82,199.42Z"/>
          <path class="cls-1" d="M88.63,199.81a.56.56,0,0,0,.43.22l-.25-.26Z"/>
          <path class="cls-1" d="M88.8,199.76h0l.39-.07Z"/>
          <path class="cls-1" d="M88.59,199.82h0S88.6,199.77,88.59,199.82Z"/>
          <path class="cls-1" d="M86.6,199.87c.24-.2.75-.52.17-.66C86.62,199.46,87,199.55,86.6,199.87Z"/>
          <path class="cls-1" d="M88.28,199.49l-.49,0c0,.08.14.17,0,.29Z"/>
          <polygon class="cls-1" points="88.5 199.34 88.28 199.49 88.47 199.47 88.5 199.34"/>
          <path class="cls-1" d="M90.93,199.38a1.45,1.45,0,0,1,.64-.36,3.78,3.78,0,0,0-.84.15C90.72,199.27,90.64,199.47,90.93,199.38Z"/>
          <path class="cls-1" d="M89.89,199.55l0,0S89.88,199.5,89.89,199.55Z"/>
          <polygon class="cls-1" points="94.05 198.29 93.99 198.25 94 198.3 94.05 198.29"/>
          <path class="cls-1" d="M90.67,199.12a.52.52,0,0,0-.42.23,3.41,3.41,0,0,1,.48-.18S90.73,199.09,90.67,199.12Z"/>
          <path class="cls-1" d="M92.48,199.08a1.76,1.76,0,0,0-.4-.06C92.21,199.08,92.46,199.16,92.48,199.08Z"/>
          <path class="cls-1" d="M90,199.59l0,0C90.08,199.66,90.07,199.63,90,199.59Z"/>
          <path class="cls-1" d="M90,199.59a1.23,1.23,0,0,0,.22-.24,1.8,1.8,0,0,0-.31.17Z"/>
          <path class="cls-1" d="M94.15,196.14a.67.67,0,0,1-.91.57c-.38.34.19,1.15.75,1.54,0-.12-.06-.23.34-.56-.2-.08-1.12,0-.82-.38.56-.33.52-.07.87,0-.36-.25.58-.76.28-1.21l-.46.36C94.17,196.35,94.31,196.16,94.15,196.14Z"/>
          <path class="cls-1" d="M93.1,198.48l-.18.09a2,2,0,0,1,.78.18c.28-.23.31-.35.3-.45l-1,.24Z"/>
          <path class="cls-1" d="M92.05,198.83c.07-.35.49-.61.11-.85-.55.18-.32.36-.61.59.88-.34-.22.25.49.22a2.53,2.53,0,0,1-.47.23,2.9,2.9,0,0,1,.51,0l0,0h0s-.07,0,0,0h0a.48.48,0,0,1,0-.12c.29,0,.07.06,0,.12s0,0,0,.05h0l.87-.43A3.58,3.58,0,0,0,92.05,198.83Z"/>
          <path class="cls-1" d="M87.12,198.45a.07.07,0,0,1,0,.06C87.22,198.46,87.23,198.43,87.12,198.45Z"/>
          <path class="cls-1" d="M87.53,198.55c-.06,0-.09.19-.31.21s0-.15-.06-.25c-.11.11-.4.32,0,.38l.06-.06c.38,0,.94.3.88.35A2,2,0,0,0,87.53,198.55Z"/>
          <path class="cls-1" d="M89.79,198.66c.24-.11.48-.21.71-.34l-.45-.16.06.16C89.67,198.35,89.81,198.52,89.79,198.66Z"/>
          <polygon class="cls-1" points="94.18 198.41 94.19 198.75 94.47 198.16 94.18 198.41"/>
          <polygon class="cls-1" points="95.14 198.02 95.2 198.3 95.4 198.05 95.14 198.02"/>
          <path class="cls-1" d="M133.87,158.49l0-.24A.81.81,0,0,0,133.87,158.49Z"/>
          <path class="cls-1" d="M133.05,159.87l.1.11C133.12,159.87,133.09,159.82,133.05,159.87Z"/>
          <path class="cls-1" d="M116.77,185.39c.42,0,1,0,.73-.17l-.28-.17A.82.82,0,0,1,116.77,185.39Z"/>
          <path class="cls-1" d="M127.07,171.81l-.14,0,.11.36Z"/>
          <path class="cls-1" d="M126.18,170.83l.42-.21A1.62,1.62,0,0,0,126.18,170.83Z"/>
          <path class="cls-1" d="M137.47,150.49l-.19-.36C137.13,150.5,137.34,150.4,137.47,150.49Z"/>
          <path class="cls-1" d="M104.69,193.65a2.38,2.38,0,0,0,.73-.2C105,193.47,104.65,193.37,104.69,193.65Z"/>
          <path class="cls-1" d="M136.47,160.67c0-.15,0-.23-.07-.26C136.37,160.56,136.38,160.66,136.47,160.67Z"/>
          <path class="cls-1" d="M106.15,193l-.17,0a2.17,2.17,0,0,1-.56.4A.74.74,0,0,0,106.15,193Z"/>
          <path class="cls-1" d="M146.53,120.07s0,0,.05-.06S146.53,120,146.53,120.07Z"/>
          <path class="cls-1" d="M150.74,111.08a2.69,2.69,0,0,1,0,.39A.77.77,0,0,0,150.74,111.08Z"/>
          <path class="cls-1" d="M99.05,196.65c-.19.11,0,0,0,0Z"/>
          <path class="cls-1" d="M97.61,195.92a.2.2,0,0,0,0-.17A.3.3,0,0,1,97.61,195.92Z"/>
          <path class="cls-1" d="M107,190.27h0C106.91,190.24,106.93,190.24,107,190.27Z"/>
          <path class="cls-1" d="M98.69,196.65a1.62,1.62,0,0,0,.3,0A1.23,1.23,0,0,0,98.69,196.65Z"/>
          <path class="cls-1" d="M98.79,196.77l-.18,0C98.6,196.88,98.64,196.9,98.79,196.77Z"/>
          <path class="cls-1" d="M99.32,196.52a2.13,2.13,0,0,1-.33.11s.07,0,.06,0Z"/>
          <path class="cls-1" d="M143.63,137l.05,0C143.61,136.7,143.61,136.8,143.63,137Z"/>
          <path class="cls-1" d="M118.62,179.24a0,0,0,0,1,0,0h0Z"/>
          <path class="cls-1" d="M119,178.55c.05.5-.12.6-.35.71l.82.47Z"/>
          <path class="cls-1" d="M135.59,155.05l-.5.33c-.11-.76.22-1.1-.35-.84.85.51-.85,1.83,0,2.36l-.34.2c.05-.08,0-.12.06-.2-.72.37.4.77-.13,1.48-.21.23-.44.35-.44.11,0,.24-.08.47-.12.7s-.24,0-.12-.12l-.45.93,0,0a4.52,4.52,0,0,1,.11.8c-.26.15,0-.17-.16-.17l-.09.61c-.33.07-.31-.46-.08-.78-1.11,0,0,.53-1.09,1.23l.16-.53c-.66,0-.68.49-1.3.81.24,0,1.37-.58,1.27.08a.78.78,0,0,0-.31.67c-.3-.18-.4.14-.61.49l-.37-.27c-.13.44.09.54.13.87-.31.39-.66.28-1,.21-.48.62.78-.14.35.69a3.18,3.18,0,0,0-.81,1.73c-.39.29-.18-.22-.39-.16l.07.54c-.06.08-.14,0-.17-.06-.08.36.36.28.15.8.34.41-1.24.47-1.15,1.36-.2,0-.18-.24-.36-.3a6.25,6.25,0,0,0-.29,1.69l-.63.33c.56-.16.53.56.47,1.19a3.46,3.46,0,0,0,.55-.09l-.32.83c-.13,0-.2-.13-.26-.36a1.34,1.34,0,0,0,0,.19c-.32.14-.44-.15-.51-.48l.41-.07a1.32,1.32,0,0,0-.46-.82.62.62,0,0,1-.07.3c0-.09-.06-.16-.11-.17s0,.13,0,.31l-.52-.17.13.17-.92.66a6.31,6.31,0,0,1-.61,3c-.08-.48-.42-.45-.75-.75.58,0,.47-.87,1-1.31-.25.23-.37,0-.37-.08l-.41,1.16c-.26-.26-.37,0-.67.14.69.3-.18,1-.34,1.47-.21-.15-.31-.38.11-.78-.82.12.09,1.17-.68,1.32.09-.1.17-.13.12-.26-.06.39-.73.86-.76.58l.09-.11c-.68.63-1.92,2.06-1.6,2.58a4.32,4.32,0,0,1-.49-.74q.15,1.31.27,2.64c-.27-.48-1.54-1-1.21-1.74a1.19,1.19,0,0,0-.66.69c.16-.05.8.29.68.47a4.54,4.54,0,0,0-1.34.16c.25-.06.63.71.34.93,0-.13-.58-.58-.54-.73L117,182c.07-.26-.44-.54-.74-.57.18.05-.58.49-.7.71L116,182c-.83.57,0,1.54-.78,2.15,0-.2-.43-1-.89-.74.09.46.48,2.19,0,3l-.28-.08-.38.65a19.07,19.07,0,0,1,.23-3.35c-.41.09-.26-.15-.68.22-.29,0,0-.46.14-.57l-1.09.7c.35.34-.47,1-.18,1.3l.78-1.29a1.67,1.67,0,0,1-.56,2.11c-.31,0-.38-.79-.5-.91,0,.21-.51.77-.65.73l.16-.44c-.52.15-.3,1-1.07,1-.19.1-.88-.14-.74.12a4.33,4.33,0,0,1,1.71,2.08,5.85,5.85,0,0,1-1.6.15c-.54-.16-.14-1.15-.6-1.29a.68.68,0,0,1,0,.45c-.25,0-.15-.39-.53-.08.21.46-.85.51,0,.47-.32.38-.48.2-.94.52.33.17.16,1.19-.17,1.57a.57.57,0,0,0-.31-.23c-.85.5-1.45.54-2.24,1-.14-.06-.59,0-.53-.24a.91.91,0,0,1-.34.5c-.68-.1.52-.37-.09-.61.1.26-.44.71-.71,1.06.32.34.85-.39,1.11-.74a2,2,0,0,1-.73,2.16c-.63.48-.49-.2-.57-.06-1.34.55-.64,1.51-1.92,1.66-.6-.14-.35-.69-.57-.9.5-.41,1-.21,1.35-.41l-.55.07a1.06,1.06,0,0,1,.71-.49,3.4,3.4,0,0,0-1.44.5,7.5,7.5,0,0,1-1.94.65c-.13.2-.4.46-.19.54l.31-.19c.42.16-.44.66,0,.62a2.45,2.45,0,0,1-1.41,1l-.28-.37c.06.12.5.08.63-.12-.19.3-1.18-.18-1.26.46l.55.13c-.37.37-.77,1-1.39,1.09.41.32.11-.09.69.24-.57-.47,1.48-.5.67-.92.64.41.81,0,1.53.2-.07-.13-.29-.18.21-.31a.55.55,0,0,1,0-.17h0s0,0,0,0a.53.53,0,0,1-.32-.1c.1-.41.84-.72,1-1,.3-.06,0,.2.17.28l.26-.4c.17.28,1,.18.39.63l.59-.24a1.53,1.53,0,0,0,1.15-.43c.3-.07.53-.66.4-.32l.81-.63,0,.07c.92-.39,1.54-1.42,2.81-1.47a2.58,2.58,0,0,1,1-.7l.24.19c.33-.28,1.24-.45,1.25-.79.79.38,1.84-1,2.54-1.31l-.18-.31a6.55,6.55,0,0,0,1.21-1.17l-.23-.24c.29-.54,1.29-.63,2-1.2,0,.14-.16.26-.34.29,1.28-.07,1.38-1.8,2.45-2a.59.59,0,0,1,.45-.36.05.05,0,0,0,0,.05l.07-.06a2.45,2.45,0,0,0,.37-.08,1.44,1.44,0,0,0-.33.05,2.73,2.73,0,0,0,.47-.58l.31.19,0-.05c.28-.08,0-.27-.23-.37a1,1,0,0,0,.13-.4c.53.28.4-.61,1-.36-.06-.33.86-1.06.55-1.61.06.05.14,0,0,.13a1,1,0,0,0,.6-.62l.4.23,0-.89c.47-.08.7-.09.65.44.31-1.05.42-.69.62-1.62l.18.23c.19-.22.25-.8.54-.77.81-.11,2.25-2.26,3.69-3.21-.85-.3.78-.35.33-.82.21.06.45-.05.41.27.39-.78,1.07-.78,1-1.58.21,0,.11.32.25.33s0-.31.19-.31.06.21,0,.36c.52-.7.08-1.16-.33-1.56.48-.18.59-.38.48-.86.24,0,.55-.09.28.38.2-.22,1.34-1.3,1-1.6.15,0,.29-.31.29-.41a8.76,8.76,0,0,0,.82-1.13l-.16.11c-.31-.54.21-.53.46-1l0,0c1-.77.15-.54,1.22-1.27l-.33-.14c-.55-.51.95-.66,1.09-1.41l-.3.11c0-.46,1.43-.36,1.72-.64.1,0,0,.17,0,.3.92-.63-.31-.36,0-1,.28,0,.43.48.74.08.32-.11.07-1.69.83-2-.24,0-.48.08-.43-.3.21-.49,1.35-.9,1.08-1.61a.19.19,0,0,1,.18,0c.07-.43.4-1.3.24-1.67,1.23.23.67-2.52,1.65-2,.18-.38.33-.77.5-1.16l.09.08a1.49,1.49,0,0,0,.18-1.44c.15-.13.18,0,.23.07a2.32,2.32,0,0,0,.63-2.21l.37,0c-.09-.33,1.19-1.34,1.27-2.56a.23.23,0,0,1,.09.18c.15-1.34,2.09-2.53,1-3.45v-.91c-.49,1-.47-.35-.84,0,.09-.43.78-.9.65-.38l-.09.05c.57.42.72-1.19,1.13-1,.67-2.07,1.75-4,2.34-5.92l-.58.07.24-.67c.17-.14.47-.12.3.36.36-.17,0-.89-.1-.94.49-.89.48.55.58.26l.08-.41-.09.07c-.11-.38-.31-.47-.12-1.05.2-.34.36-.1.42-.24,0,0,.07,0,.08-.23l.27-.85-.5.24c-.09-.44.24-.81-.32-.54.85-.4,1.11-3.16,1.38-3.48a3.12,3.12,0,0,1,.14-1.8c-.13.15-.61.15-.42-.41.9.41.64-1,1.43-1.28-.53.33.19-1.66-.57-1.14.16-.46.36,0,.65-.28-.17-1.22.73-2.48.82-3.93-.12-.05-.34.16-.49-.17l.74-.66c0-.29-.68-.37-.17-.82-.12.06-.29.14-.31,0a14.1,14.1,0,0,0,.69-4.24,11.12,11.12,0,0,1,.95-4.27c-.28.37-.28.11-.27-.19-.07.19-.31,0-.49,0l.57-1.16c-.46-.25.06-1.28-.38-1.44l0,.39c-.5-.54-1.25.62-1.94.5.57.6-1,1.39-.2,2.37-.16.19-.21-.19-.38-.09.28.25.33.54.14,1L148,113a17.65,17.65,0,0,1-.82,3.63l.36-.08a1.41,1.41,0,0,1-.3.56c.47.46.13-1,.66-.54-.72.38-.33,2.45-1.17,2.65-.08.53.42-.1.34.43l-.24.11.26.18a.59.59,0,0,1-.57.46,1.32,1.32,0,0,0,0-.34c-.31.41-.1,1.29-.21,1.43l.21-.49c0,1.49-.65,3.19-.47,4.67l.18-.07c.1,1.12-.32.82-.45,2l0-.05a1.4,1.4,0,0,1,0,.91c-.12-.34-.48.47-.6,0,.05,1.22.12.62.53,1.52l-.3.11a1.14,1.14,0,0,1,.24,1c-.12-.53-.48.27-.66-.33-.87,1.06.11,1.94-.87,2.28.58.74.68-.94.75-.59.3-.2.42.6.24,1s-1.09.41-1.33,1.38c0-.09,0-.11,0-.21-.28.31.06.78-.37,1.14.35.37-.2.56.33.79l.14-.92c0,.54.49,1.2-.07,1.94a1.46,1.46,0,0,1-.2-.58c-.23.19,0,.5-.27.69-.53-.23.2-1.1-.05-1.76-.31.19.09,1.13-.43.68.64.61-.38.92,0,1.74l-.31-.14a1.12,1.12,0,0,1,0,.56l-.32-.47c.2.64-.61.91-.59,1.46.34-1,.47-.1.86-.47,0,1.44-1.11.46-1.44,1.95,0-.21.44-.66.49-.31a2,2,0,0,1-.64.68c-.26,1,.39,0,.45.44-.51.19,0,.53,0,1l-.33-.11c-.59,1,.59.53,0,1.41l-.3-.58-.08.55-.33-.24a1.59,1.59,0,0,1-.38,1.29c.27,0,.56.29.39.77-.32.25-.24-.3-.46.39-.14-.23-.33-.5.08-.67-.09-.07-.15-.23-.24-.3-.36.26-.39.85-.48,1.09a.71.71,0,0,1,.18-.23l.07,1.16c-.19.1-.23-.06-.28-.22a3.75,3.75,0,0,1-.05.7c-.23-.18-.51-.28-.46-.73l-.1,1c-.14,0-.51.34-.56.18-.37.43,0,1.45-.52,2a.46.46,0,0,1,0,.31c-.32.61-.92,1-.92,1.89l-.65.2c-.17.62.84-.29.56.75-.18.75-.51.07-.75.24.06.44.26,1.28-.44,1.69C135.37,155.38,135.52,155.25,135.59,155.05ZM132,162c0-.17,0-.55.21-.54C132.44,161.84,132.21,161.85,132,162Zm-6.15,10.3c0-.16.13-.26.35-.34A.68.68,0,0,1,125.83,172.32Zm-24.71,23.11v0C101.51,195.38,101.37,195.38,101.12,195.43Zm-.73.17c0,.08,0,.12,0,.15s.16-.17.34-.22C100.67,195.46,100.56,195.44,100.39,195.6Zm46.14-60.15-.12.12C146.39,135.23,146.45,135.34,146.53,135.45Z"/>
          <path class="cls-1" d="M126.28,171a.42.42,0,0,1,.19.06C126.46,170.93,126.41,170.89,126.28,171Z"/>
          <path class="cls-1" d="M137.51,150.56v0l-.05,0Z"/>
          <path class="cls-1" d="M108.6,187.58a.66.66,0,0,1,.34,0C108.89,187.5,108.8,187.48,108.6,187.58Z"/>
          <path class="cls-1" d="M97,197.66l.42-.25a.71.71,0,0,1-.44,0C97,197.52,97.15,197.6,97,197.66Z"/>
          <path class="cls-1" d="M92.48,196.93c0,.06-.14,0-.19.1l.07.15C92.63,197.09,92.78,196.91,92.48,196.93Z"/>
          <path class="cls-1" d="M96.19,196.72c-.13-.26-.37-.07-.66.09l0,0C95.63,197.21,95.92,197,96.19,196.72Z"/>
          <path class="cls-1" d="M95.46,196.85a1.33,1.33,0,0,1-.28.1C95.2,197.12,95.31,197,95.46,196.85Z"/>
          <path class="cls-1" d="M99.61,196.15c-.17,0,.06.38-.07.31C99.53,196.87,100.32,195.63,99.61,196.15Z"/>
          <polygon class="cls-1" points="95.61 195.9 95.84 196.2 95.91 195.87 95.61 195.9"/>
          <path class="cls-1" d="M98.07,195.22l-.51.11s0,.11-.08.17C97.78,195.38,98.13,195.31,98.07,195.22Z"/>
          <path class="cls-1" d="M97.48,195.5a.82.82,0,0,0-.36.22A1.84,1.84,0,0,0,97.48,195.5Z"/>
          <polygon class="cls-1" points="96.23 195.56 96.4 195.58 96.75 195.48 96.23 195.56"/>
          <path class="cls-1" d="M103.12,192.93c.15-.12.31-.23.45-.35s-.17-.13-.34,0S103,192.86,103.12,192.93Z"/>
          <path class="cls-1" d="M101.16,192.8c.17,0,.21.07.34.13l-.18-.41Z"/>
          <path class="cls-1" d="M102.56,192c0-.13.55-.67-.07-.34C102.5,191.78,102.05,192.12,102.56,192Z"/>
          <polygon class="cls-1" points="110 188.1 109.89 188.19 110.33 188.78 110 188.1"/>
          <path class="cls-1" d="M114.7,182.2c-.6.3.19.46-.41.67,0,.23.49-.17.47,0C114.93,182.51,115.15,182.45,114.7,182.2Z"/>
          <path class="cls-1" d="M114.76,182.91a1.13,1.13,0,0,0-.08.22A1.25,1.25,0,0,0,114.76,182.91Z"/>
          <polygon class="cls-1" points="151.25 109.53 151.43 109.11 151.17 109.37 151.25 109.53"/>
          <path class="cls-1" d="M150.76,108.67l.48-.08-.4-.28C150.85,108.41,150.88,108.6,150.76,108.67Z"/>
          <path class="cls-1" d="M130.56,162.51l.08.08c.14,0,.2-.06.32-.22Z"/>
          <polygon class="cls-1" points="133.71 157.8 133.66 157.88 134.12 157.93 133.71 157.8"/>
          <path class="cls-1" d="M135.4,153.33c-.1.17-.11.41-.21.58C135.3,153.5,135.9,153.52,135.4,153.33Z"/>
        </g>
      </g>
    </g>
  </g>
</svg>
