<?xml version="1.0" encoding="UTF-8"?>
<svg width="512px" height="512px" viewBox="0 0 512 512" version="1.1" xmlns="http://www.w3.org/2000/svg" xmlns:xlink="http://www.w3.org/1999/xlink">
    <!-- Generator: Sketch 43.1 (39012) - http://www.bohemiancoding.com/sketch -->
    <title>whatsapp</title>
    <desc>Created with Sketch.</desc>
    <defs></defs>
    <g id="Page-1" stroke="none" stroke-width="1" fill="none" fill-rule="evenodd">
        <g id="whatsapp" fill-rule="nonzero" fill="#A31637">
            <path d="M256.064,0 L255.936,0 C114.784,0 0,114.816 0,256 C0,312 18.048,363.904 48.736,406.048 L16.832,501.152 L115.232,469.696 C155.712,496.512 204,512 256.064,512 C397.216,512 512,397.152 512,256 C512,114.848 397.216,0 256.064,0 Z M405.024,361.504 C398.848,378.944 374.336,393.408 354.784,397.632 C341.408,400.48 323.936,402.752 265.12,378.368 C189.888,347.2 141.44,270.752 137.664,265.792 C134.048,260.832 107.264,225.312 107.264,188.576 C107.264,151.84 125.92,133.952 133.44,126.272 C139.616,119.968 149.824,117.088 159.616,117.088 C162.784,117.088 165.632,117.248 168.192,117.376 C175.712,117.696 179.488,118.144 184.448,130.016 C190.624,144.896 205.664,181.632 207.456,185.408 C209.28,189.184 211.104,194.304 208.544,199.264 C206.144,204.384 204.032,206.656 200.256,211.008 C196.48,215.36 192.896,218.688 189.12,223.36 C185.664,227.424 181.76,231.776 186.112,239.296 C190.464,246.656 205.504,271.2 227.648,290.912 C256.224,316.352 279.392,324.48 287.68,327.936 C293.856,330.496 301.216,329.888 305.728,325.088 C311.456,318.912 318.528,308.672 325.728,298.592 C330.848,291.36 337.312,290.464 344.096,293.024 C351.008,295.424 387.584,313.504 395.104,317.248 C402.624,321.024 407.584,322.816 409.408,325.984 C411.2,329.152 411.2,344.032 405.024,361.504 Z" id="Shape"></path>
        </g>
    </g>
</svg>